<?xml version="1.0" encoding="UTF-8"?>
<svg id="Layer_1" xmlns="http://www.w3.org/2000/svg" xmlns:xlink="http://www.w3.org/1999/xlink" version="1.1" viewBox="0 0 678.2 678.2">
  <!-- Generator: Adobe Illustrator 29.3.1, SVG Export Plug-In . SVG Version: 2.1.0 Build 151)  -->
  <defs>
    <style>
      .st0 {
        fill: #83c2ba;
      }

      .st1 {
        fill: #fff;
        stroke: #000;
        stroke-miterlimit: 10;
      }

      .st2 {
        fill: #3f9a8e;
      }

      .st3 {
        fill: #80c26c;
      }

      .st4 {
        fill: #3faa6d;
      }
    </style>
  </defs>
  <rect class="st1" x="43" y="39" width="254" height="268"/>
  <rect class="st1" x="405" y="40" width="254" height="268"/>
  <rect class="st1" x="399" y="369" width="254" height="268"/>
  <rect class="st1" x="10.4" y="377.3" width="254" height="268"/>
  <path class="st4" d="M535.3,472.2c-4.6-3.3-9.7-5.6-15.5-7s-11.8-2.1-18-2.1h-17.8v86.9h17c6.4,0,12.6-.7,18.6-2.2,5.9-1.5,11.2-3.9,15.8-7.2,4.5-3.4,8.2-7.8,10.9-13.4,2.7-5.6,4.1-12.5,4.1-20.8s-1.4-15.4-4.1-20.9c-2.7-5.5-6.4-9.9-10.9-13.2h0Z"/>
  <path class="st0" d="M678.4,327.9V.5h-330.4v327.4h330.4ZM451.2,88.5h35.7v89.7c0,4.1.5,7.9,1.6,11.5,1,3.6,2.7,6.9,4.8,9.8,2.2,2.9,5,5.1,8.6,6.8s7.9,2.5,12.9,2.5,9.3-.8,12.9-2.5c3.6-1.7,6.5-4,8.7-6.8,2.2-2.9,3.8-6.1,4.8-9.8,1-3.6,1.5-7.5,1.5-11.5v-89.7h35.9v92.6c0,9-1.5,17.1-4.5,24.5s-7.3,13.7-12.9,18.9c-5.6,5.2-12.4,9.3-20.3,12.3-7.9,2.9-16.7,4.4-26.4,4.4s-18.6-1.5-26.5-4.4c-7.8-2.9-14.5-7-20-12.3s-9.7-11.5-12.6-18.9c-2.9-7.3-4.4-15.5-4.4-24.5v-92.6h.2,0Z"/>
  <path class="st4" d="M678.4,678.1v-328.6h-330.4v328.6h330.4ZM448.9,432.4h53.8c10.5,0,20.9,1.2,31.1,3.7s19.3,6.5,27.3,12.2,14.4,13.3,19.3,22.8c4.9,9.5,7.3,21.3,7.3,35.3s-2.4,24.3-7.2,33.7-11.2,17.2-19.1,23.3c-7.9,6.1-16.8,10.6-26.8,13.4-9.9,2.9-20,4.3-30.2,4.3h-55.4v-148.7h0Z"/>
  <path class="st3" d="M.8.5v327.4h325.6V.5H.8ZM169.3,241.9c-43.3,0-75.4-33.4-75.4-75.6v-.4c0-41.8,31.5-76,76.7-76s44.3,9.2,58,22.7l-20.6,23.7c-11.3-10.3-22.9-16.6-37.6-16.6-24.8,0-42.6,20.6-42.6,45.8v.4c0,25.2,17.4,46.2,42.6,46.2s27.1-6.7,38.6-17.2l20.6,20.8c-15.1,16.2-31.9,26.2-60.3,26.2h0Z"/>
  <path class="st2" d="M.8,349.5v328.6h325.6v-328.6H.8ZM150.7,479.4c1,1.7,2.6,3.1,4.6,4.4s4.4,2.4,7.2,3.5c2.8,1,5.9,2.1,9.5,3.3,5,1.7,10.3,3.5,15.8,5.6,5.5,2,10.4,4.7,14.9,8.1s8.2,7.5,11.1,12.5c2.9,5,4.4,11.2,4.4,18.6s-1.6,15.9-4.7,22.2c-3.1,6.2-7.4,11.4-12.7,15.4-5.3,4.1-11.4,7.1-18.3,9-6.9,2-13.9,2.9-21.2,2.9-10.6,0-20.9-1.9-30.9-5.6-9.9-3.7-18.2-9-24.8-15.9l23.5-23.9c3.6,4.5,8.4,8.2,14.4,11.2,5.9,3,11.9,4.5,17.7,4.5s5.2-.3,7.8-.8c2.5-.6,4.7-1.5,6.6-2.7s3.4-2.9,4.5-5,1.7-4.6,1.7-7.6-.7-5.2-2.1-7.1c-1.4-2-3.4-3.7-6-5.4-2.6-1.6-5.8-3.1-9.7-4.4-3.9-1.3-8.2-2.8-13.1-4.3-4.8-1.5-9.4-3.4-14-5.5s-8.6-4.8-12.2-8.1c-3.6-3.3-6.4-7.3-8.6-12s-3.3-10.4-3.3-17.1,1.7-15.3,5-21.2,7.8-10.7,13.2-14.5c5.5-3.8,11.6-6.5,18.5-8.3,6.9-1.7,13.8-2.6,20.8-2.6s17,1.5,25.7,4.6,16.4,7.6,23,13.6l-22.9,24.2c-3.1-3.9-7.1-7-12.1-9.3s-9.8-3.5-14.4-3.5-4.8.2-7.2.6c-2.5.4-4.7,1.2-6.6,2.4-2,1.2-3.6,2.7-4.9,4.6-1.3,1.9-2,4.3-2,7.2s.5,4.6,1.6,6.3h.2,0Z"/>
</svg>